<svg width="25" height="18" viewBox="0 0 25 18" fill="none" xmlns="http://www.w3.org/2000/svg">
<path fill-rule="evenodd" clip-rule="evenodd" d="M22.2816 0.53706C23.3525 0.826247 24.1968 1.67315 24.4851 2.74727C25.0205 4.70961 24.9999 8.79953 24.9999 8.79953C24.9999 8.79953 24.9999 12.8688 24.4851 14.8311C24.1968 15.9052 23.3525 16.7521 22.2816 17.0413C20.3253 17.5577 12.4999 17.5577 12.4999 17.5577C12.4999 17.5577 4.6952 17.5577 2.71828 17.0207C1.64744 16.7315 0.803127 15.8846 0.514825 14.8105C0 12.8688 0 8.77887 0 8.77887C0 8.77887 0 4.70961 0.514825 2.74727C0.803127 1.67315 1.66803 0.80559 2.71828 0.516404C4.67461 0 12.4999 0 12.4999 0C12.4999 0 20.3253 0 22.2816 0.53706ZM16.5156 8.77895L10.0082 12.5384V5.01953L16.5156 8.77895Z" fill="white"/>
</svg>
