<svg width="25" height="20" viewBox="0 0 25 20" fill="none" xmlns="http://www.w3.org/2000/svg">
<path d="M22.4406 4.97895C22.4558 5.19593 22.4558 5.41292 22.4558 5.63191C22.4558 12.3045 17.2964 20 7.86208 20V19.996C5.07516 20 2.34613 19.2141 0 17.7321C0.405241 17.7801 0.812513 17.8041 1.2208 17.8051C3.53037 17.8071 5.77392 17.0442 7.5909 15.6393C5.3961 15.5983 3.47146 14.1894 2.79911 12.1325C3.56795 12.2785 4.36015 12.2485 5.11477 12.0455C2.72192 11.5695 1.00041 9.49966 1.00041 7.09581V7.03182C1.71339 7.42279 2.51168 7.63978 3.32826 7.66378C1.07455 6.18087 0.37985 3.22906 1.74081 0.921204C4.34491 4.076 8.18708 5.99388 12.3116 6.19687C11.8982 4.44298 12.4629 2.6051 13.7955 1.37218C15.8613 -0.539704 19.1103 -0.44171 21.0522 1.59116C22.2009 1.36818 23.3018 0.953202 24.3094 0.365239C23.9265 1.53417 23.1251 2.5271 22.0546 3.15806C23.0713 3.04007 24.0646 2.77209 25 2.36311C24.3114 3.37905 23.444 4.26399 22.4406 4.97895Z" fill="white"/>
</svg>
