<svg width="332" height="61" viewBox="0 0 332 61" fill="none" xmlns="http://www.w3.org/2000/svg">
<path d="M93.4444 17.4429C96.2196 17.4429 98.6448 17.9934 100.72 19.0946C102.795 20.1957 104.395 21.7473 105.52 23.7493C106.67 25.7264 107.245 28.0162 107.245 30.6189C107.245 33.1965 106.67 35.4864 105.52 37.4884C104.395 39.4905 102.783 41.042 100.682 42.1432C98.6073 43.2443 96.1946 43.7949 93.4444 43.7949H83.5811V17.4429H93.4444ZM93.0318 38.2392C95.457 38.2392 97.3447 37.576 98.6948 36.2496C100.045 34.9233 100.72 33.0464 100.72 30.6189C100.72 28.1914 100.045 26.3019 98.6948 24.9506C97.3447 23.5992 95.457 22.9235 93.0318 22.9235H89.9941V38.2392H93.0318Z" fill="white"/>
<path d="M130.556 32.9838C130.556 33.5844 130.518 34.2101 130.443 34.8607H115.93C116.03 36.1621 116.442 37.1631 117.167 37.8638C117.917 38.5395 118.83 38.8773 119.905 38.8773C121.505 38.8773 122.618 38.2016 123.243 36.8503H130.068C129.718 38.2267 129.081 39.4654 128.156 40.5666C127.255 41.6677 126.118 42.5311 124.743 43.1567C123.368 43.7824 121.83 44.0952 120.13 44.0952C118.08 44.0952 116.255 43.6572 114.655 42.7813C113.054 41.9054 111.804 40.6542 110.904 39.0275C110.004 37.4008 109.554 35.4989 109.554 33.3216C109.554 31.1444 109.992 29.2425 110.867 27.6158C111.767 25.9891 113.017 24.7378 114.617 23.8619C116.217 22.986 118.055 22.5481 120.13 22.5481C122.155 22.5481 123.955 22.9735 125.53 23.8244C127.105 24.6753 128.331 25.889 129.206 27.4656C130.106 29.0423 130.556 30.8816 130.556 32.9838ZM123.993 31.2946C123.993 30.1934 123.618 29.3175 122.868 28.6669C122.118 28.0162 121.18 27.6909 120.055 27.6909C118.98 27.6909 118.067 28.0037 117.317 28.6293C116.592 29.255 116.142 30.1434 115.967 31.2946H123.993Z" fill="white"/>
<path d="M142.452 44.0952C140.627 44.0952 139.002 43.7824 137.577 43.1567C136.152 42.5311 135.026 41.6802 134.201 40.6041C133.376 39.503 132.914 38.2767 132.814 36.9253H139.152C139.227 37.6511 139.564 38.2392 140.164 38.6896C140.764 39.1401 141.502 39.3653 142.377 39.3653C143.177 39.3653 143.79 39.2152 144.215 38.9149C144.665 38.5895 144.89 38.1766 144.89 37.6761C144.89 37.0755 144.577 36.6375 143.952 36.3623C143.327 36.0619 142.314 35.7366 140.914 35.3863C139.414 35.0359 138.164 34.673 137.164 34.2976C136.164 33.8972 135.301 33.2841 134.576 32.4583C133.851 31.6074 133.489 30.4687 133.489 29.0423C133.489 27.841 133.814 26.7524 134.464 25.7764C135.139 24.7754 136.114 23.9871 137.389 23.4115C138.689 22.8359 140.227 22.5481 142.002 22.5481C144.627 22.5481 146.69 23.1988 148.19 24.5001C149.715 25.8014 150.59 27.5282 150.815 29.6804H144.89C144.79 28.9547 144.465 28.3791 143.915 27.9536C143.39 27.5282 142.689 27.3155 141.814 27.3155C141.064 27.3155 140.489 27.4656 140.089 27.7659C139.689 28.0412 139.489 28.4291 139.489 28.9296C139.489 29.5303 139.802 29.9807 140.427 30.281C141.077 30.5813 142.077 30.8816 143.427 31.1819C144.977 31.5824 146.24 31.9828 147.215 32.3832C148.19 32.7586 149.04 33.3842 149.765 34.2601C150.515 35.111 150.903 36.2622 150.928 37.7136C150.928 38.9399 150.578 40.041 149.878 41.017C149.202 41.968 148.215 42.7188 146.915 43.2693C145.64 43.8199 144.152 44.0952 142.452 44.0952Z" fill="white"/>
<path d="M158.076 20.6712C156.951 20.6712 156.026 20.3458 155.301 19.6952C154.601 19.0195 154.251 18.1936 154.251 17.2176C154.251 16.2166 154.601 15.3908 155.301 14.7401C156.026 14.0644 156.951 13.7266 158.076 13.7266C159.176 13.7266 160.076 14.0644 160.776 14.7401C161.502 15.3908 161.864 16.2166 161.864 17.2176C161.864 18.1936 161.502 19.0195 160.776 19.6952C160.076 20.3458 159.176 20.6712 158.076 20.6712ZM161.264 22.8484V43.7949H154.851V22.8484H161.264Z" fill="white"/>
<path d="M173.862 22.5481C175.337 22.5481 176.625 22.8484 177.725 23.449C178.85 24.0496 179.712 24.8379 180.312 25.8139V22.8484H186.725V43.7573C186.725 45.6843 186.338 47.4236 185.563 48.9752C184.813 50.5518 183.65 51.8031 182.075 52.729C180.525 53.655 178.587 54.1179 176.262 54.1179C173.162 54.1179 170.649 53.3797 168.724 51.9032C166.799 50.4517 165.699 48.4747 165.424 45.9721H171.762C171.962 46.7729 172.437 47.3986 173.187 47.849C173.937 48.3245 174.862 48.5623 175.962 48.5623C177.287 48.5623 178.337 48.1744 179.112 47.3986C179.912 46.6478 180.312 45.4341 180.312 43.7573V40.7918C179.687 41.7678 178.825 42.5686 177.725 43.1943C176.625 43.7949 175.337 44.0952 173.862 44.0952C172.137 44.0952 170.574 43.6572 169.174 42.7813C167.774 41.8804 166.661 40.6166 165.836 38.9899C165.036 37.3383 164.636 35.4363 164.636 33.2841C164.636 31.1319 165.036 29.2425 165.836 27.6158C166.661 25.9891 167.774 24.7378 169.174 23.8619C170.574 22.986 172.137 22.5481 173.862 22.5481ZM180.312 33.3216C180.312 31.72 179.862 30.4562 178.962 29.5303C178.087 28.6043 177.012 28.1413 175.737 28.1413C174.462 28.1413 173.374 28.6043 172.474 29.5303C171.599 30.4312 171.162 31.6825 171.162 33.2841C171.162 34.8857 171.599 36.1621 172.474 37.113C173.374 38.039 174.462 38.5019 175.737 38.5019C177.012 38.5019 178.087 38.039 178.962 37.113C179.862 36.1871 180.312 34.9233 180.312 33.3216Z" fill="white"/>
<path d="M204.116 22.6232C206.566 22.6232 208.516 23.424 209.966 25.0256C211.441 26.6023 212.179 28.7795 212.179 31.5573V43.7949H205.804V32.4207C205.804 31.0193 205.441 29.9307 204.716 29.1549C203.991 28.3791 203.016 27.9912 201.791 27.9912C200.566 27.9912 199.591 28.3791 198.866 29.1549C198.14 29.9307 197.778 31.0193 197.778 32.4207V43.7949H191.365V22.8484H197.778V25.6263C198.428 24.7003 199.303 23.9746 200.403 23.449C201.503 22.8985 202.741 22.6232 204.116 22.6232Z" fill="white"/>
<path d="M215.623 30.6564C215.623 28.0788 216.198 25.7764 217.348 23.7493C218.523 21.6972 220.111 20.1081 222.111 18.9819C224.136 17.8308 226.399 17.2552 228.899 17.2552C231.824 17.2552 234.387 18.0059 236.587 19.5075C238.787 21.009 240.325 23.0862 241.2 25.7389H235.162C234.562 24.4876 233.712 23.5491 232.612 22.9235C231.536 22.2978 230.286 21.985 228.861 21.985C227.336 21.985 225.974 22.3479 224.773 23.0736C223.598 23.7744 222.673 24.7754 221.998 26.0767C221.348 27.378 221.023 28.9046 221.023 30.6564C221.023 32.3832 221.348 33.9097 221.998 35.2361C222.673 36.5374 223.598 37.551 224.773 38.2767C225.974 38.9774 227.336 39.3278 228.861 39.3278C230.286 39.3278 231.536 39.015 232.612 38.3893C233.712 37.7387 234.562 36.7877 235.162 35.5364H241.2C240.325 38.2142 238.787 40.3038 236.587 41.8053C234.412 43.2818 231.849 44.0201 228.899 44.0201C226.399 44.0201 224.136 43.457 222.111 42.3309C220.111 41.1797 218.523 39.5906 217.348 37.5635C216.198 35.5364 215.623 33.234 215.623 30.6564Z" fill="white"/>
<path d="M244.334 33.3216C244.334 31.2195 244.747 29.3551 245.572 27.7284C246.422 26.1017 247.559 24.8505 248.984 23.9746C250.435 23.0987 252.047 22.6607 253.822 22.6607C255.372 22.6607 256.722 22.9735 257.873 23.5992C259.048 24.2248 259.985 25.0131 260.685 25.9641V22.9986H265.973V43.7949H260.685V40.7543C260.01 41.7303 259.073 42.5436 257.873 43.1943C256.697 43.8199 255.335 44.1327 253.785 44.1327C252.035 44.1327 250.435 43.6823 248.984 42.7813C247.559 41.8804 246.422 40.6166 245.572 38.9899C244.747 37.3383 244.334 35.4488 244.334 33.3216ZM260.685 33.3967C260.685 32.1204 260.435 31.0318 259.935 30.1309C259.435 29.2049 258.76 28.5042 257.91 28.0287C257.06 27.5282 256.147 27.2779 255.172 27.2779C254.197 27.2779 253.297 27.5157 252.472 27.9912C251.647 28.4667 250.972 29.1674 250.447 30.0933C249.947 30.9943 249.697 32.0704 249.697 33.3216C249.697 34.5729 249.947 35.674 250.447 36.625C250.972 37.551 251.647 38.2642 252.472 38.7647C253.322 39.2652 254.222 39.5155 255.172 39.5155C256.147 39.5155 257.06 39.2777 257.91 38.8023C258.76 38.3017 259.435 37.601 259.935 36.7001C260.435 35.7742 260.685 34.673 260.685 33.3967Z" fill="white"/>
<path d="M296.903 22.6983C299.453 22.6983 301.503 23.4866 303.053 25.0632C304.629 26.6148 305.416 28.792 305.416 31.5949V43.7949H300.166V32.3081C300.166 30.6814 299.753 29.4427 298.928 28.5918C298.103 27.7159 296.978 27.2779 295.553 27.2779C294.128 27.2779 292.99 27.7159 292.14 28.5918C291.315 29.4427 290.903 30.6814 290.903 32.3081V43.7949H285.652V32.3081C285.652 30.6814 285.24 29.4427 284.415 28.5918C283.59 27.7159 282.464 27.2779 281.039 27.2779C279.589 27.2779 278.439 27.7159 277.589 28.5918C276.764 29.4427 276.351 30.6814 276.351 32.3081V43.7949H271.101V22.9986H276.351V25.5136C277.027 24.6377 277.889 23.9495 278.939 23.449C280.014 22.9485 281.189 22.6983 282.464 22.6983C284.09 22.6983 285.54 23.0486 286.815 23.7493C288.09 24.425 289.077 25.401 289.777 26.6773C290.453 25.4761 291.428 24.5126 292.703 23.7869C294.003 23.0611 295.403 22.6983 296.903 22.6983Z" fill="white"/>
<path d="M315.649 26.0016C316.324 25.0507 317.249 24.2624 318.424 23.6367C319.624 22.986 320.987 22.6607 322.512 22.6607C324.287 22.6607 325.887 23.0987 327.312 23.9746C328.762 24.8505 329.9 26.1017 330.725 27.7284C331.575 29.33 332 31.1945 332 33.3216C332 35.4488 331.575 37.3383 330.725 38.9899C329.9 40.6166 328.762 41.8804 327.312 42.7813C325.887 43.6823 324.287 44.1327 322.512 44.1327C320.987 44.1327 319.637 43.8199 318.461 43.1943C317.311 42.5686 316.374 41.7803 315.649 40.8293V53.705H310.398V22.9986H315.649V26.0016ZM326.637 33.3216C326.637 32.0704 326.375 30.9943 325.85 30.0933C325.35 29.1674 324.674 28.4667 323.824 27.9912C322.999 27.5157 322.099 27.2779 321.124 27.2779C320.174 27.2779 319.274 27.5282 318.424 28.0287C317.599 28.5042 316.924 29.2049 316.399 30.1309C315.899 31.0568 315.649 32.1454 315.649 33.3967C315.649 34.648 315.899 35.7366 316.399 36.6626C316.924 37.5885 317.599 38.3017 318.424 38.8023C319.274 39.2777 320.174 39.5155 321.124 39.5155C322.099 39.5155 322.999 39.2652 323.824 38.7647C324.674 38.2642 325.35 37.551 325.85 36.625C326.375 35.6991 326.637 34.5979 326.637 33.3216Z" fill="white"/>
<path fill-rule="evenodd" clip-rule="evenodd" d="M20.3857 51.57C19.7527 51.4484 19.1268 51.3029 18.5081 51.1334C16.3399 50.5333 14.317 49.6793 12.4393 48.5715C10.5617 47.4637 8.8517 46.125 7.30936 44.5556C5.78937 42.9862 4.48173 41.2437 3.38645 39.328C2.31351 37.4124 1.47528 35.3352 0.871758 33.0965C0.290586 30.8347 0 28.4805 0 26.0341C0 23.5876 0.290586 21.245 0.871758 19.0062C1.47528 16.7444 2.31351 14.6557 3.38645 12.7401C4.48173 10.8014 5.78937 9.0473 7.30936 7.47787C8.8517 5.90844 10.5617 4.56981 12.4393 3.46198C14.317 2.35414 16.3399 1.50019 18.5081 0.900114C20.6987 0.300038 22.9787 0 25.348 0C27.628 0 29.8521 0.276958 32.0203 0.830874C34.2109 1.38479 36.245 2.2272 38.1227 3.35812C40.0003 4.46595 41.6656 5.87382 43.1185 7.58173C44.1241 8.73017 44.9843 10.018 45.6991 11.4453C46.5821 11.5784 47.4542 11.7561 48.3155 11.9784C50.4614 12.5323 52.4731 13.3286 54.3508 14.3672C56.2508 15.3827 57.9831 16.629 59.5478 18.1061C61.1348 19.5832 62.4872 21.245 63.6048 23.0914C64.7448 24.9147 65.6277 26.9226 66.2536 29.1152C66.8795 31.2847 67.1924 33.5812 67.1924 36.0045C67.1924 38.4279 66.8795 40.7359 66.2536 42.9285C65.6277 45.098 64.7448 47.1059 63.6048 48.9523C62.4872 50.7987 61.146 52.472 59.5813 53.9722C58.0166 55.4493 56.2843 56.7071 54.3843 57.7457C52.5067 58.7843 50.4837 59.5921 48.3155 60.1691C46.1697 60.723 43.9567 61 41.6768 61H20.3857V51.57ZM38.5755 11.1476C37.9409 10.2246 37.2088 9.41681 36.3791 8.72418C35.3509 7.82406 34.1774 7.13167 32.8586 6.64699C31.5398 6.13924 30.098 5.88536 28.5333 5.88536C26.8569 5.88536 25.3145 6.17386 23.9063 6.75085C22.5204 7.30477 21.2687 8.07794 20.151 9.07037C19.0557 10.0628 18.0946 11.2168 17.2675 12.5323C16.4405 13.8479 15.7475 15.2558 15.1887 16.756C14.6299 18.2331 14.2164 19.7679 13.9481 21.3604C13.6799 22.9529 13.5458 24.5108 13.5458 26.0341C13.5458 28.4574 13.814 30.8693 14.3505 33.2696C14.9093 35.6699 15.7811 37.8278 16.9658 39.7435C17.8987 41.2242 19.0387 42.4911 20.3857 43.5443V11.1476H38.5755ZM33.6968 50.6728C35.1785 50.1815 36.5867 49.5504 37.9215 48.7792C39.8215 47.6945 41.5091 46.3328 42.9844 44.6941C44.4597 43.0323 45.622 41.1052 46.4714 38.9126L40.6709 36.5238C40.2015 37.8855 39.5756 39.1549 38.7932 40.332C38.0109 41.5091 37.0944 42.5361 36.0438 43.4132C35.3221 44.0126 34.5397 44.5267 33.6968 44.9556V15.8558H37.2174C40.1009 15.8558 42.5709 16.3982 44.6273 17.483C46.7061 18.5677 48.4161 20.0333 49.7573 21.8797C51.0984 23.7261 52.082 25.8725 52.7078 28.319C53.3561 30.7423 53.6802 33.3042 53.6802 36.0045C53.6802 38.6818 53.3561 41.2321 52.7078 43.6555C52.0596 46.0789 51.0537 48.2253 49.6902 50.0948C48.3491 51.9412 46.6391 53.4183 44.5603 54.5261C42.5038 55.6109 40.0562 56.1532 37.2174 56.1532H33.6968V50.6728Z" fill="#FFA500"/>
</svg>
